<mxfile host="app.diagrams.net" agent="Mozilla/5.0 (Windows NT 10.0; Win64; x64) AppleWebKit/537.36 (KHTML, like Gecko) Chrome/135.0.0.0 Safari/537.36" version="26.2.5">
  <diagram name="Page-1" id="2a216829-ef6e-dabb-86c1-c78162f3ba2b">
    <mxGraphModel dx="1503" dy="801" grid="1" gridSize="10" guides="1" tooltips="1" connect="1" arrows="1" fold="1" page="1" pageScale="1" pageWidth="850" pageHeight="1100" background="none" math="0" shadow="0">
      <root>
        <mxCell id="0" />
        <mxCell id="1" parent="0" />
        <mxCell id="DDrz1xS-YMQtESWOBfK_-34" value="" style="rounded=0;whiteSpace=wrap;html=1;" vertex="1" parent="1">
          <mxGeometry x="150" y="740" width="1650" height="300" as="geometry" />
        </mxCell>
        <mxCell id="DDrz1xS-YMQtESWOBfK_-35" value="TEC/ADM" style="rounded=0;whiteSpace=wrap;html=1;" vertex="1" parent="1">
          <mxGeometry x="10" y="740" width="140" height="300" as="geometry" />
        </mxCell>
        <mxCell id="DDrz1xS-YMQtESWOBfK_-33" value="" style="rounded=0;whiteSpace=wrap;html=1;" vertex="1" parent="1">
          <mxGeometry x="150" y="440" width="1650" height="300" as="geometry" />
        </mxCell>
        <mxCell id="DDrz1xS-YMQtESWOBfK_-31" value="" style="rounded=0;whiteSpace=wrap;html=1;" vertex="1" parent="1">
          <mxGeometry x="10" y="440" width="140" height="300" as="geometry" />
        </mxCell>
        <mxCell id="DDrz1xS-YMQtESWOBfK_-30" value="" style="rounded=0;whiteSpace=wrap;html=1;" vertex="1" parent="1">
          <mxGeometry x="150" y="140" width="1650" height="300" as="geometry" />
        </mxCell>
        <mxCell id="DDrz1xS-YMQtESWOBfK_-29" value="" style="rounded=0;whiteSpace=wrap;html=1;" vertex="1" parent="1">
          <mxGeometry x="10" y="140" width="140" height="300" as="geometry" />
        </mxCell>
        <mxCell id="7a84cebc1def654-1" value="" style="shape=mxgraph.bpmn.shape;html=1;verticalLabelPosition=bottom;labelBackgroundColor=#ffffff;verticalAlign=top;perimeter=ellipsePerimeter;outline=standard;symbol=general;fillColor=#B9E0A5;" parent="1" vertex="1">
          <mxGeometry x="260" y="265" width="50" height="50" as="geometry" />
        </mxCell>
        <mxCell id="7a84cebc1def654-36" style="edgeStyle=orthogonalEdgeStyle;rounded=0;html=1;jettySize=auto;orthogonalLoop=1;" parent="1" source="7a84cebc1def654-1" edge="1">
          <mxGeometry relative="1" as="geometry">
            <mxPoint x="470" y="290" as="targetPoint" />
          </mxGeometry>
        </mxCell>
        <mxCell id="DDrz1xS-YMQtESWOBfK_-1" value="&lt;font color=&quot;#2e2e2e&quot;&gt;&lt;span&gt;&amp;nbsp;INICIO PROBLEMA TECNICO IDENTIFICADO PELO COLABORADOR&lt;/span&gt;&lt;/font&gt;" style="text;whiteSpace=wrap;html=1;align=left;" vertex="1" parent="1">
          <mxGeometry x="230" y="330" width="170" height="90" as="geometry" />
        </mxCell>
        <mxCell id="DDrz1xS-YMQtESWOBfK_-2" value="" style="whiteSpace=wrap;html=1;aspect=fixed;fillColor=#A9C4EB;" vertex="1" parent="1">
          <mxGeometry x="470" y="235" width="110" height="110" as="geometry" />
        </mxCell>
        <mxCell id="DDrz1xS-YMQtESWOBfK_-3" value="&lt;font color=&quot;#2e2e2e&quot;&gt;&lt;span&gt;REGISTRAR&amp;nbsp;&lt;/span&gt;&lt;/font&gt;&lt;div&gt;&lt;font color=&quot;#2e2e2e&quot;&gt;&lt;span&gt;PROBLEMA&lt;/span&gt;&lt;/font&gt;&lt;/div&gt;&lt;div&gt;&lt;font color=&quot;#2e2e2e&quot;&gt;&lt;span&gt;NO&amp;nbsp; APP&lt;/span&gt;&lt;/font&gt;&lt;/div&gt;" style="text;whiteSpace=wrap;html=1;" vertex="1" parent="1">
          <mxGeometry x="490" y="265" width="100" height="77.5" as="geometry" />
        </mxCell>
        <mxCell id="DDrz1xS-YMQtESWOBfK_-4" style="edgeStyle=orthogonalEdgeStyle;rounded=0;html=1;jettySize=auto;orthogonalLoop=1;" edge="1" parent="1">
          <mxGeometry relative="1" as="geometry">
            <mxPoint x="580" y="289.5" as="sourcePoint" />
            <mxPoint x="740" y="289.5" as="targetPoint" />
          </mxGeometry>
        </mxCell>
        <mxCell id="DDrz1xS-YMQtESWOBfK_-37" style="edgeStyle=orthogonalEdgeStyle;rounded=0;orthogonalLoop=1;jettySize=auto;html=1;" edge="1" parent="1" source="DDrz1xS-YMQtESWOBfK_-5" target="DDrz1xS-YMQtESWOBfK_-8">
          <mxGeometry relative="1" as="geometry" />
        </mxCell>
        <mxCell id="DDrz1xS-YMQtESWOBfK_-5" value="" style="whiteSpace=wrap;html=1;aspect=fixed;fillColor=#A9C4EB;" vertex="1" parent="1">
          <mxGeometry x="740" y="235" width="110" height="110" as="geometry" />
        </mxCell>
        <mxCell id="DDrz1xS-YMQtESWOBfK_-6" value="&lt;font color=&quot;#2e2e2e&quot;&gt;ENVIAR TICKET&lt;/font&gt;&lt;div&gt;&lt;font color=&quot;#2e2e2e&quot;&gt;&lt;br&gt;&lt;/font&gt;&lt;/div&gt;" style="text;whiteSpace=wrap;html=1;" vertex="1" parent="1">
          <mxGeometry x="750" y="280" width="100" height="77.5" as="geometry" />
        </mxCell>
        <mxCell id="DDrz1xS-YMQtESWOBfK_-24" value="" style="edgeStyle=orthogonalEdgeStyle;rounded=0;orthogonalLoop=1;jettySize=auto;html=1;" edge="1" parent="1" source="DDrz1xS-YMQtESWOBfK_-8" target="DDrz1xS-YMQtESWOBfK_-23">
          <mxGeometry relative="1" as="geometry" />
        </mxCell>
        <mxCell id="DDrz1xS-YMQtESWOBfK_-45" value="" style="edgeStyle=orthogonalEdgeStyle;rounded=0;orthogonalLoop=1;jettySize=auto;html=1;" edge="1" parent="1" source="DDrz1xS-YMQtESWOBfK_-8" target="DDrz1xS-YMQtESWOBfK_-44">
          <mxGeometry relative="1" as="geometry">
            <Array as="points">
              <mxPoint x="1030" y="580" />
            </Array>
          </mxGeometry>
        </mxCell>
        <mxCell id="DDrz1xS-YMQtESWOBfK_-51" value="" style="edgeStyle=orthogonalEdgeStyle;rounded=0;orthogonalLoop=1;jettySize=auto;html=1;" edge="1" parent="1" source="DDrz1xS-YMQtESWOBfK_-8" target="DDrz1xS-YMQtESWOBfK_-50">
          <mxGeometry relative="1" as="geometry">
            <Array as="points">
              <mxPoint x="970" y="510" />
            </Array>
          </mxGeometry>
        </mxCell>
        <mxCell id="DDrz1xS-YMQtESWOBfK_-8" value="" style="rhombus;whiteSpace=wrap;html=1;fillColor=#FFE599;" vertex="1" parent="1">
          <mxGeometry x="990" y="470" width="80" height="80" as="geometry" />
        </mxCell>
        <mxCell id="DDrz1xS-YMQtESWOBfK_-9" value="&lt;div&gt;&lt;b style=&quot;color: light-dark(rgb(46, 46, 46), rgb(198, 198, 198)); background-color: transparent;&quot;&gt;&lt;font style=&quot;font-size: 22px;&quot;&gt;X&lt;/font&gt;&lt;/b&gt;&lt;/div&gt;" style="text;whiteSpace=wrap;html=1;" vertex="1" parent="1">
          <mxGeometry x="1020" y="490" width="30" height="17.5" as="geometry" />
        </mxCell>
        <mxCell id="DDrz1xS-YMQtESWOBfK_-16" value="&lt;font color=&quot;#2e2e2e&quot;&gt;&lt;b&gt;&lt;i&gt;AVALIAR URGENCIA&lt;/i&gt;&lt;/b&gt;&lt;/font&gt;" style="text;whiteSpace=wrap;html=1;" vertex="1" parent="1">
          <mxGeometry x="900" y="440" width="200" height="35" as="geometry" />
        </mxCell>
        <mxCell id="DDrz1xS-YMQtESWOBfK_-23" value="&lt;div&gt;Notificar Líder da Manutenção (Imediato)&lt;/div&gt;" style="rounded=1;whiteSpace=wrap;html=1;fillColor=#A9C4EB;" vertex="1" parent="1">
          <mxGeometry x="1480" y="480" width="120" height="60" as="geometry" />
        </mxCell>
        <mxCell id="DDrz1xS-YMQtESWOBfK_-25" value="&lt;div&gt;Urgência Alta&lt;/div&gt;" style="text;whiteSpace=wrap;html=1;" vertex="1" parent="1">
          <mxGeometry x="1220" y="478.75" width="100" height="40" as="geometry" />
        </mxCell>
        <mxCell id="DDrz1xS-YMQtESWOBfK_-27" value="COLABORADOR&lt;div&gt;&lt;br&gt;&lt;/div&gt;" style="text;html=1;align=center;verticalAlign=middle;resizable=0;points=[];autosize=1;strokeColor=none;fillColor=none;" vertex="1" parent="1">
          <mxGeometry x="20" y="275" width="120" height="40" as="geometry" />
        </mxCell>
        <mxCell id="DDrz1xS-YMQtESWOBfK_-28" value="SYSTEM-APP&lt;div&gt;&lt;br&gt;&lt;/div&gt;" style="text;html=1;align=center;verticalAlign=middle;resizable=0;points=[];autosize=1;strokeColor=none;fillColor=none;" vertex="1" parent="1">
          <mxGeometry x="30" y="580" width="100" height="40" as="geometry" />
        </mxCell>
        <mxCell id="DDrz1xS-YMQtESWOBfK_-38" value="&lt;div&gt;&lt;b&gt;&lt;font style=&quot;font-size: 24px;&quot;&gt;[Pool: Processo de Manutenção Predial da APAE]&lt;/font&gt;&lt;/b&gt;&lt;br&gt;&lt;/div&gt;" style="text;whiteSpace=wrap;html=1;" vertex="1" parent="1">
          <mxGeometry x="560" y="70" width="650" height="40" as="geometry" />
        </mxCell>
        <mxCell id="DDrz1xS-YMQtESWOBfK_-44" value="&lt;div&gt;Notificar Líder da Manutenção (Fila)&lt;/div&gt;" style="rounded=1;whiteSpace=wrap;html=1;fillColor=#A9C4EB;" vertex="1" parent="1">
          <mxGeometry x="1250" y="610" width="120" height="60" as="geometry" />
        </mxCell>
        <mxCell id="DDrz1xS-YMQtESWOBfK_-49" value="&lt;div&gt;Urgência Média&lt;/div&gt;" style="text;whiteSpace=wrap;html=1;" vertex="1" parent="1">
          <mxGeometry x="1210" y="550" width="100" height="40" as="geometry" />
        </mxCell>
        <mxCell id="DDrz1xS-YMQtESWOBfK_-60" value="" style="edgeStyle=orthogonalEdgeStyle;rounded=0;orthogonalLoop=1;jettySize=auto;html=1;" edge="1" parent="1" source="DDrz1xS-YMQtESWOBfK_-50" target="DDrz1xS-YMQtESWOBfK_-59">
          <mxGeometry relative="1" as="geometry" />
        </mxCell>
        <mxCell id="DDrz1xS-YMQtESWOBfK_-50" value="&#xa;&lt;span style=&quot;color: rgb(0, 0, 0); font-family: Helvetica; font-size: 12px; font-style: normal; font-variant-ligatures: normal; font-variant-caps: normal; font-weight: 400; letter-spacing: normal; orphans: 2; text-align: center; text-indent: 0px; text-transform: none; widows: 2; word-spacing: 0px; -webkit-text-stroke-width: 0px; white-space: normal; background-color: rgb(236, 236, 236); text-decoration-thickness: initial; text-decoration-style: initial; text-decoration-color: initial; display: inline !important; float: none;&quot;&gt;Notificar Líder da Manutenção (Fila)&lt;/span&gt;&#xa;&#xa;" style="rounded=1;whiteSpace=wrap;html=1;fillColor=#A9C4EB;" vertex="1" parent="1">
          <mxGeometry x="915" y="610" width="120" height="60" as="geometry" />
        </mxCell>
        <mxCell id="DDrz1xS-YMQtESWOBfK_-52" value="&lt;div&gt;Urgência Baixa&lt;/div&gt;" style="text;whiteSpace=wrap;html=1;" vertex="1" parent="1">
          <mxGeometry x="870" y="550" width="100" height="40" as="geometry" />
        </mxCell>
        <mxCell id="DDrz1xS-YMQtESWOBfK_-59" value="&#xa;&lt;div&gt;Confirmar Recebimento do Ticket&lt;/div&gt;&#xa;&#xa;" style="whiteSpace=wrap;html=1;fillColor=#A9C4EB;rounded=1;" vertex="1" parent="1">
          <mxGeometry x="170" y="810" width="120" height="60" as="geometry" />
        </mxCell>
      </root>
    </mxGraphModel>
  </diagram>
</mxfile>
